#!OML:ASF I:\golf\golf\golf 2\Subject 1\2002-09-07\Subject1.ASF
:FULLY-SPECIFIED
:DEGREES
142
root -6.40665 17.8616 2.48424 -3.59487 46.2373 -17.2362
lowerback 0.416505 -7.92298 -15.0516
upperback 2.1563 -10.2538 -2.05901
thorax 4.32677 -5.41772 5.51304
lowerneck -6.47003 19.289 2.7822
upperneck 21.0977 29.7313 -12.0079
head 10.1127 12.9471 -0.909698
rclavicle 9.14409e-014 2.22639e-014
rhumerus -4.21868 -10.3419 -89.9762
rradius 85.3807
rwrist -39.6976
rhand -61.2851 19.898
rfingers 7.12502
rthumb -33.3744 -7.02249
lclavicle 9.14409e-014 2.22639e-014
lhumerus 83.0076 -61.2909 38.5495
lradius 24.3796
lwrist -3.71534
lhand -12.3984 14.2732
lfingers 7.12502
lthumb -166.327 -136.196
rfemur -26.595 9.92462 29.3649
rtibia 26.0258
rfoot -5.11691 20.0359
rtoes 22.8099
lfemur -5.48417 18.3458 7.63519
ltibia 34.052
lfoot -3.89483 16.5484
ltoes -32.2876
143
root -6.39331 17.8617 2.54282 -3.35376 45.6524 -16.8787
lowerback 0.321613 -8.09066 -15.1839
upperback 1.974 -10.4685 -2.16538
thorax 4.23265 -5.50742 5.44688
lowerneck -6.33148 19.5134 2.55431
upperneck 20.5598 29.9719 -12.1113
head 9.8973 13.0817 -0.919563
rclavicle -6.44062e-014 -3.49861e-014
rhumerus -3.47685 -10.7133 -89.373
rradius 86.6371
rwrist -38.035
rhand -61.6149 22.2041
rfingers 7.12502
rthumb -33.6878 -4.64841
lclavicle -6.44062e-014 -3.49861e-014
lhumerus 83.8328 -60.7461 38.9359
lradius 24.6444
lwrist -3.75956
lhand -13.1991 13.1477
lfingers 7.12502
lthumb -167.099 -137.271
rfemur -26.485 10.0828 29.4336
rtibia 26.3496
rfoot -5.20338 20.4756
rtoes 23.4762
lfemur -4.86656 18.2561 7.72672
ltibia 33.8022
lfoot -3.47517 16.6787
ltoes -31.4692
144
root -6.38011 17.8594 2.59803 -2.88125 45.0872 -16.2968
lowerback 0.208376 -8.26854 -15.4156
upperback 1.75386 -10.6917 -2.32665
thorax 4.11761 -5.59757 5.37331
lowerneck -6.1826 19.689 2.49126
upperneck 20.0686 30.1602 -12.3051
head 9.73537 13.1909 -0.977008
rclavicle -3.77691e-015 9.54166e-014
rhumerus -2.72547 -11.1164 -88.7968
rradius 87.8888
rwrist -36.2517
rhand -61.7644 23.56
rfingers 7.12502
rthumb -33.8299 -3.26141
lclavicle -3.77691e-015 9.54166e-014
lhumerus 85.427 -60.1963 38.3046
lradius 25.0643
lwrist -3.84074
lhand -14.2246 12.6088
lfingers 7.12502
lthumb -168.088 -137.75
rfemur -26.4185 10.1923 29.313
rtibia 26.5487
rfoot -5.17453 20.8958
rtoes 24.0334
lfemur -4.46058 18.2948 7.59397
ltibia 33.7682
lfoot -2.93417 16.7365
ltoes -31.5413
145
root -6.36896 17.8622 2.65491 -2.4361 44.5902 -15.7245
lowerback 0.197292 -8.50323 -15.646
upperback 1.50918 -11.0103 -2.51493
thorax 3.9329 -5.72787 5.2774
lowerneck -5.97541 19.9005 2.51934
upperneck 19.5379 30.3739 -12.4865
head 9.56387 13.3256 -1.04345
rclavicle 1.93815e-014 6.36111e-014
rhumerus -2.08032 -11.3731 -88.3457
rradius 89.2317
rwrist -34.7081
rhand -61.7421 25.0238
rfingers 7.12502
rthumb -33.8087 -1.80219
lclavicle 1.93815e-014 6.36111e-014
lhumerus 86.2297 -59.638 38.4514
lradius 25.2953
lwrist -4.3255
lhand -15.2441 11.8124
lfingers 7.12502
lthumb -169.071 -138.492
rfemur -26.3433 10.5456 29.1155
rtibia 26.7375
rfoot -5.27639 20.9919
rtoes 24.1962
lfemur -4.10869 18.3081 7.44354
ltibia 33.7974
lfoot -2.49561 16.7748
ltoes -31.2094
146
root -6.3586 17.8673 2.71103 -2.12876 44.1321 -15.3353
lowerback 0.174695 -8.73348 -15.6796
upperback 1.29017 -11.3231 -2.69705
thorax 3.74306 -5.85316 5.08659
lowerneck -5.76666 20.0826 2.40095
upperneck 18.9292 30.4975 -12.517
head 9.30843 13.434 -1.07461
rclavicle 2.52457e-014 -4.77083e-014
rhumerus -1.40012 -11.5953 -87.9066
rradius 90.4888
rwrist -33.233
rhand -61.7058 26.4761
rfingers 7.12502
rthumb -33.7742 -0.357499
lclavicle 2.52457e-014 -4.77083e-014
lhumerus 86.4501 -59.1243 39.3961
lradius 25.3651
lwrist -5.00572
lhand -15.9144 10.96
lfingers 7.12502
lthumb -169.717 -139.311
rfemur -26.2817 10.8545 29.044
rtibia 26.9585
rfoot -5.38103 21.19
rtoes 24.5255
lfemur -3.76992 18.2729 7.41021
ltibia 33.8079
lfoot -2.20403 16.8901
ltoes -29.8288
147
root -6.34775 17.8731 2.7621 -1.6617 43.6798 -14.7264
lowerback 0.147712 -8.94864 -15.761
upperback 1.08039 -11.6107 -2.94119
thorax 3.55512 -5.96537 4.85819
lowerneck -5.73872 20.2664 2.22563
upperneck 18.4328 30.6488 -12.4969
head 9.11048 13.5361 -1.0584
rclavicle -2.11209e-014 6.67916e-014
rhumerus -0.60966 -11.8456 -87.4098
rradius 91.6119
rwrist -31.5982
rhand -61.8186 27.9332
rfingers 7.12502
rthumb -33.8814 1.12316
lclavicle -2.11209e-014 6.67916e-014
lhumerus 88.7229 -58.3431 37.7556
lradius 25.9017
lwrist -4.49048
lhand -16.4153 10.5732
lfingers 7.12502
lthumb -170.201 -139.675
rfemur -26.2515 10.9547 28.8164
rtibia 27.1734
rfoot -5.36156 21.6094
rtoes 25.1508
lfemur -3.48013 18.2135 7.12962
ltibia 33.8082
lfoot -1.81625 17.1784
ltoes -29.1996
